<svg xmlns="http://www.w3.org/2000/svg" width="800" height="1000"><path d="M 143 0 LM 142 1 LM 141 1 LM 140 2 LM 139 1 LM 134 1 LM 134 2 LM 133 3 LM 131 3 LM 129 5 LM 129 6 LM 128 7 LM 128 12 LM 127 13 LM 125 13 LM 124 14 LM 120 14 LM 119 15 LM 115 15 LM 114 16 LM 109 16 LM 107 14 LM 107 13 LM 103 13 LM 102 12 LM 102 11 LM 101 11 LM 98 8 LM 98 7 LM 97 6 LM 88 6 LM 87 7 LM 85 7 LM 84 6 LM 79 6 LM 78 7 LM 76 7 LM 75 8 LM 74 8 LM 73 9 LM 72 9 LM 70 11 LM 69 11 LM 67 13 LM 65 13 LM 64 14 LM 64 15 LM 62 17 LM 61 17 LM 60 18 LM 60 22 LM 59 23 LM 59 25 LM 58 26 LM 58 34 LM 57 35 LM 57 40 LM 58 41 LM 58 43 LM 61 46 LM 61 55 LM 62 56 LM 62 58 LM 64 60 LM 64 61 LM 66 63 LM 66 66 LM 67 67 LM 71 67 LM 72 66 LM 74 68 LM 76 68 LM 77 69 LM 76 70 LM 75 70 LM 75 77 LM 76 78 LM 76 82 LM 78 82 LM 79 83 LM 78 84 LM 78 85 LM 77 86 LM 77 88 LM 76 89 LM 76 97 LM 77 98 LM 77 100 LM 78 101 LM 83 101 LM 83 100 LM 84 99 LM 87 99 LM 87 93 LM 88 92 LM 89 92 LM 91 94 LM 91 96 LM 92 97 LM 92 100 LM 93 101 LM 93 103 LM 94 104 LM 94 109 LM 95 110 LM 95 112 LM 96 113 LM 96 115 LM 97 116 LM 97 117 LM 99 119 LM 99 120 LM 100 121 LM 100 126 LM 99 127 LM 99 129 LM 98 130 LM 98 131 LM 96 133 LM 96 134 LM 92 138 LM 92 139 LM 88 143 LM 87 143 LM 86 144 LM 83 144 LM 82 145 LM 78 145 LM 76 147 LM 75 147 LM 74 148 LM 72 148 LM 68 152 LM 67 152 LM 66 153 LM 64 153 LM 63 154 LM 61 154 LM 60 155 LM 58 155 LM 57 156 LM 56 156 LM 55 157 LM 53 157 LM 52 158 LM 51 158 LM 50 159 LM 47 159 LM 46 160 LM 43 160 LM 42 161 LM 41 161 LM 39 163 LM 38 163 LM 37 164 LM 36 164 LM 35 165 LM 33 165 LM 31 167 LM 28 167 LM 26 169 LM 25 169 LM 23 171 LM 22 171 LM 20 173 LM 20 174 LM 19 175 LM 19 176 LM 18 177 LM 18 178 LM 17 179 LM 17 180 LM 16 181 LM 16 184 LM 15 185 LM 15 187 LM 14 188 LM 14 193 LM 13 194 LM 13 196 LM 12 197 LM 12 200 LM 11 201 LM 11 203 LM 10 204 LM 10 209 LM 9 210 LM 9 215 LM 8 216 LM 8 236 LM 9 237 LM 9 285 LM 10 286 LM 10 287 LM 9 288 LM 9 305 LM 8 306 LM 8 313 LM 7 314 LM 7 317 LM 6 318 LM 6 324 LM 5 325 LM 5 335 LM 4 336 LM 4 342 LM 3 343 LM 3 344 LM 2 345 LM 2 359 LM 1 360 LM 1 380 LM 2 381 LM 2 396 LM 3 397 LM 3 405 LM 4 406 LM 4 418 LM 5 419 LM 5 439 LM 6 440 LM 6 455 LM 5 456 LM 5 459 LM 4 460 LM 4 464 LM 3 465 LM 3 467 LM 2 468 LM 2 472 LM 1 473 LM 1 476 LM 0 477 LM 0 488 LM 1 489 LM 1 492 LM 2 493 LM 2 499 LM 3 500 LM 3 502 LM 4 503 LM 4 505 LM 5 506 LM 5 507 LM 7 509 LM 7 510 LM 8 511 LM 8 512 LM 10 512 LM 12 514 LM 13 514 LM 15 516 LM 16 516 LM 17 517 LM 18 517 LM 20 519 LM 21 519 LM 22 520 LM 27 520 LM 28 521 LM 33 521 LM 35 523 LM 35 560 LM 36 561 LM 36 575 LM 37 576 LM 37 583 LM 38 584 LM 38 589 LM 39 590 LM 39 592 LM 40 593 LM 40 599 LM 41 600 LM 41 616 LM 40 617 LM 40 624 LM 39 625 LM 39 639 LM 38 640 LM 38 643 LM 37 644 LM 37 646 LM 36 647 LM 36 653 LM 35 654 LM 35 660 LM 34 661 LM 34 665 LM 33 666 LM 33 668 LM 32 669 LM 32 674 LM 31 675 LM 31 680 LM 30 681 LM 30 712 LM 31 713 LM 31 718 LM 32 719 LM 32 727 LM 33 728 LM 33 732 LM 34 733 LM 34 737 LM 35 738 LM 35 742 LM 36 743 LM 36 748 LM 37 749 LM 37 754 LM 38 755 LM 38 759 LM 39 760 LM 39 763 LM 40 764 LM 40 768 LM 41 769 LM 41 772 LM 42 773 LM 42 776 LM 43 777 LM 43 779 LM 44 780 LM 44 783 LM 45 784 LM 45 786 LM 46 787 LM 46 793 LM 47 794 LM 47 800 LM 55 800 LM 55 797 LM 57 795 LM 61 795 LM 61 794 LM 62 793 LM 63 793 LM 64 794 LM 64 796 LM 65 797 LM 65 803 LM 66 803 LM 67 804 LM 73 804 LM 73 800 LM 72 799 LM 72 796 LM 71 795 LM 71 768 LM 72 767 LM 72 762 LM 73 761 LM 73 757 LM 74 756 LM 74 752 LM 75 751 LM 75 746 LM 76 745 LM 76 740 LM 77 739 LM 77 734 LM 78 733 LM 78 730 LM 79 729 LM 79 726 LM 80 725 LM 80 722 LM 81 721 LM 81 715 LM 82 714 LM 82 713 LM 83 712 LM 83 694 LM 82 693 LM 82 684 LM 81 683 LM 81 658 LM 82 657 LM 82 656 LM 83 655 LM 83 653 LM 84 652 LM 84 650 LM 85 649 LM 85 646 LM 86 645 LM 86 644 LM 87 643 LM 87 639 LM 88 638 LM 88 633 LM 89 632 LM 89 622 LM 90 621 LM 90 613 LM 91 612 LM 91 604 LM 92 603 LM 92 600 LM 93 599 LM 93 593 LM 94 592 LM 94 584 LM 95 583 LM 95 576 LM 96 575 LM 96 571 LM 97 570 LM 97 566 LM 98 565 LM 98 563 LM 99 562 LM 99 559 LM 100 558 LM 100 556 LM 101 555 LM 101 552 LM 102 551 LM 102 549 LM 103 548 LM 103 546 LM 104 545 LM 104 542 LM 105 541 LM 105 538 LM 106 537 LM 106 536 LM 107 535 LM 107 531 LM 108 530 LM 108 528 LM 109 527 LM 109 522 LM 110 521 LM 110 517 LM 111 516 LM 111 513 LM 112 512 LM 112 505 LM 113 504 LM 113 500 LM 114 499 LM 114 495 LM 115 494 LM 115 490 LM 116 489 LM 116 488 LM 117 487 LM 118 487 LM 119 486 LM 119 477 LM 120 476 LM 120 474 LM 121 473 LM 121 469 LM 122 468 LM 123 468 LM 124 469 LM 124 471 LM 125 472 LM 125 475 LM 126 476 LM 126 487 LM 127 488 LM 128 488 LM 131 491 LM 131 496 LM 132 497 LM 132 502 LM 133 503 LM 133 514 LM 134 515 LM 134 528 LM 135 529 LM 135 541 LM 136 542 LM 136 556 LM 135 557 LM 135 578 LM 136 579 LM 136 596 LM 135 597 LM 135 611 LM 136 612 LM 136 619 LM 137 620 LM 137 624 LM 138 625 LM 138 630 LM 139 631 LM 139 649 LM 138 650 LM 138 657 LM 137 658 LM 137 662 LM 136 663 LM 136 666 LM 135 667 LM 135 672 LM 134 673 LM 134 678 LM 133 679 LM 133 688 LM 132 689 LM 132 703 LM 133 704 LM 133 753 LM 132 754 LM 132 761 LM 131 762 LM 131 766 LM 130 767 LM 130 774 LM 139 774 LM 140 775 LM 141 775 LM 146 780 LM 146 788 LM 148 790 LM 148 791 LM 149 792 LM 149 794 LM 153 794 LM 153 790 LM 152 789 LM 153 788 LM 153 781 LM 154 780 LM 154 778 LM 155 777 LM 155 773 LM 156 772 LM 156 771 LM 157 770 LM 157 766 LM 158 765 LM 158 763 LM 159 762 LM 159 760 LM 160 759 LM 160 758 LM 161 757 LM 161 754 LM 162 753 LM 162 752 LM 163 751 LM 163 749 LM 164 748 LM 164 745 LM 165 744 LM 165 743 LM 166 742 LM 166 740 LM 167 739 LM 167 735 LM 168 734 LM 168 733 LM 169 732 LM 169 729 LM 170 728 LM 170 726 LM 171 725 LM 171 722 LM 172 721 LM 172 719 LM 173 718 LM 173 714 LM 175 712 LM 175 709 LM 176 708 LM 176 705 LM 177 704 LM 177 702 LM 178 701 LM 178 698 LM 179 697 LM 179 694 LM 180 693 LM 180 691 LM 181 690 LM 181 683 LM 182 682 LM 182 680 LM 183 679 LM 183 672 LM 184 671 LM 184 646 LM 183 645 LM 183 630 LM 182 629 LM 182 616 LM 183 615 LM 183 598 LM 184 597 LM 184 586 LM 185 585 LM 185 577 LM 186 576 LM 186 574 LM 187 573 LM 187 569 LM 188 568 LM 188 567 LM 189 566 LM 189 561 LM 190 560 LM 190 558 LM 191 557 LM 191 554 LM 192 553 LM 192 551 LM 193 550 LM 193 545 LM 194 544 LM 194 542 LM 195 541 LM 195 535 LM 196 534 LM 196 533 LM 197 532 LM 197 527 LM 198 526 LM 198 522 LM 199 521 LM 199 517 LM 200 516 LM 200 513 LM 201 512 LM 201 508 LM 202 507 LM 202 505 LM 203 504 LM 203 501 LM 204 500 LM 204 497 LM 205 496 LM 205 494 LM 206 493 LM 206 489 LM 207 488 LM 207 484 LM 208 483 LM 208 480 LM 210 478 LM 211 479 LM 211 487 LM 210 488 LM 210 507 LM 207 510 LM 206 510 LM 205 511 LM 205 515 LM 207 517 LM 207 522 LM 211 522 LM 214 519 LM 215 519 LM 216 518 LM 218 518 LM 220 516 LM 221 516 LM 223 514 LM 224 514 LM 228 510 LM 229 510 LM 232 507 LM 232 506 LM 233 505 LM 233 501 LM 234 500 LM 234 498 LM 235 497 LM 235 493 LM 236 492 LM 236 490 LM 237 489 LM 237 476 LM 236 475 LM 236 473 LM 235 472 LM 235 465 LM 234 464 LM 234 462 LM 233 461 LM 233 447 LM 232 446 LM 232 433 LM 231 432 LM 231 426 LM 230 425 LM 230 419 LM 229 418 LM 229 412 LM 228 411 LM 228 408 LM 227 407 LM 227 399 LM 226 398 LM 226 393 LM 225 392 LM 225 377 LM 224 376 LM 224 366 LM 223 365 LM 223 358 LM 222 357 LM 222 350 LM 221 349 LM 221 343 LM 220 342 LM 220 339 LM 219 338 LM 219 335 LM 218 334 LM 218 332 LM 217 331 LM 217 328 LM 216 327 LM 216 325 LM 215 324 LM 215 321 LM 214 320 LM 214 318 LM 213 317 LM 213 315 LM 212 314 LM 212 312 LM 211 311 LM 211 307 LM 210 306 LM 210 304 LM 209 303 LM 209 246 LM 210 245 LM 210 240 LM 211 239 LM 211 233 LM 212 232 LM 212 224 LM 213 223 LM 213 203 LM 212 202 LM 212 185 LM 211 184 LM 211 182 LM 210 181 LM 210 180 LM 203 173 LM 201 173 LM 200 172 LM 199 172 LM 198 171 LM 195 171 LM 193 169 LM 191 169 LM 190 168 LM 189 168 LM 187 166 LM 186 166 LM 185 165 LM 181 165 LM 180 164 LM 177 164 LM 176 163 LM 174 163 LM 173 162 LM 172 162 LM 171 161 LM 170 161 LM 168 159 LM 166 159 LM 165 158 LM 165 157 LM 159 151 LM 158 151 LM 156 149 LM 155 149 LM 154 148 LM 153 148 LM 152 147 LM 152 146 LM 150 146 LM 148 144 LM 148 142 LM 147 141 LM 147 124 LM 148 123 LM 148 121 LM 151 118 LM 151 117 LM 153 115 LM 153 113 LM 154 112 LM 154 111 LM 155 110 LM 155 105 LM 156 104 LM 156 102 LM 157 101 LM 157 98 LM 159 96 LM 165 96 LM 165 93 LM 167 91 LM 167 84 LM 166 84 LM 165 83 LM 165 81 LM 167 79 LM 168 79 LM 169 78 LM 169 70 LM 170 69 LM 171 69 LM 172 68 LM 172 60 LM 174 58 LM 174 57 LM 175 56 LM 180 56 LM 180 51 LM 181 50 LM 181 48 LM 182 47 LM 182 42 LM 183 41 LM 183 40 LM 184 39 LM 184 37 LM 185 36 LM 186 36 LM 187 35 LM 187 21 LM 186 20 LM 186 19 LM 185 18 LM 185 16 LM 184 16 LM 183 15 LM 183 13 LM 179 9 LM 178 9 LM 177 8 LM 177 7 LM 176 6 LM 171 6 LM 170 5 LM 169 5 LM 168 4 LM 159 4 LM 158 3 LM 158 2 LM 157 1 LM 150 1 LM 149 2 LM 148 1 LM 148 0" fill="none" stroke="black" /></svg>